<svg width="44" height="32" viewBox="0 0 44 32" fill="none" xmlns="http://www.w3.org/2000/svg" xmlns:xlink="http://www.w3.org/1999/xlink">
<path d="M40.283,0L20.634,0L0.984,0C-0.101,0 -0.98,0.88 -0.98,1.965L-0.98,30.035C-0.98,31.12 -0.101,32 0.984,32L20.634,32L40.283,32C41.368,32 42.248,31.12 42.248,30.035L42.248,1.965C42.248,0.88 41.368,0 40.283,0Z" fill="#5286F9"/>
<path d="M22.135,10.408C22.567,10.903 22.943,11.448 23.253,12.033C23.88,13.218 24.237,14.568 24.237,16C24.237,17.432 23.88,18.781 23.253,19.967C22.943,20.552 22.567,21.097 22.135,21.591C21.691,22.101 21.187,22.556 20.635,22.948C22.024,23.933 23.718,24.515 25.547,24.515C30.242,24.515 34.062,20.695 34.062,16C34.062,11.305 30.242,7.485 25.547,7.485C23.718,7.485 22.024,8.067 20.635,9.052C21.187,9.444 21.691,9.899 22.135,10.408Z" fill="#FFB655"/>
<path d="M23.254,12.033C22.944,11.447 22.568,10.903 22.136,10.408C21.691,9.899 21.188,9.444 20.635,9.052C19.246,8.067 17.552,7.485 15.723,7.485C11.028,7.485 7.208,11.305 7.208,16C7.208,20.695 11.028,24.515 15.723,24.515C17.552,24.515 19.246,23.933 20.635,22.948C21.188,22.556 21.691,22.101 22.136,21.592C22.568,21.097 22.944,20.552 23.254,19.967C23.881,18.781 24.238,17.432 24.238,16C24.238,14.568 23.881,13.218 23.254,12.033Z" fill="#D8143A"/>
<path d="M15.721,24.515C11.026,24.515 7.207,20.695 7.207,16C7.207,11.305 11.026,7.486 15.721,7.486C17.55,7.486 19.244,8.067 20.634,9.052L20.634,0L0.984,0C-0.101,0 -0.98,0.88 -0.98,1.965L-0.98,30.035C-0.98,31.12 -0.101,32 0.984,32L20.634,32L20.634,22.948C19.244,23.933 17.55,24.515 15.721,24.515Z" fill="#3D6DEB"/>
</svg>
