<svg width="38" height="22" viewBox="0 0 38 22" fill="none" xmlns="http://www.w3.org/2000/svg" xmlns:xlink="http://www.w3.org/1999/xlink">
<path d="M34.84,-0.999L32.632,-0.999C31.413,-0.999 30.425,-0.104 30.425,1.001L30.425,18.334C30.425,19.439 31.413,20.334 32.632,20.334L34.84,20.334C36.059,20.334 37.048,19.439 37.048,18.334L37.048,1.001C37.048,-0.104 36.059,-0.999 34.84,-0.999ZM22.328,3.667L24.536,3.667C25.755,3.667 26.744,4.563 26.744,5.667L26.744,18.334C26.744,19.439 25.755,20.334 24.536,20.334L22.328,20.334C21.109,20.334 20.121,19.439 20.121,18.334L20.121,5.667C20.121,4.563 21.109,3.667 22.328,3.667ZM14.232,8.334L12.024,8.334C10.805,8.334 9.817,9.229 9.817,10.334L9.817,18.334C9.817,19.439 10.805,20.334 12.024,20.334L14.232,20.334C15.451,20.334 16.439,19.439 16.439,18.334L16.439,10.334C16.439,9.229 15.451,8.334 14.232,8.334ZM3.928,12.334L1.72,12.334C0.501,12.334 -0.488,13.229 -0.488,14.334L-0.488,18.334C-0.488,19.439 0.501,20.334 1.72,20.334L3.928,20.334C5.147,20.334 6.135,19.439 6.135,18.334L6.135,14.334C6.135,13.229 5.147,12.334 3.928,12.334Z" clip-rule="evenodd" fill-rule="evenodd" fill="#000000"/>
</svg>
