<svg width="38" height="22" viewBox="0 0 38 22" fill="none" xmlns="http://www.w3.org/2000/svg" xmlns:xlink="http://www.w3.org/1999/xlink">
<path d="M35.749,-0.667L33.541,-0.667C32.322,-0.667 31.334,0.229 31.334,1.333L31.334,18.667C31.334,19.771 32.322,20.667 33.541,20.667L35.749,20.667C36.968,20.667 37.957,19.771 37.957,18.667L37.957,1.333C37.957,0.229 36.968,-0.667 35.749,-0.667ZM23.237,4L25.445,4C26.664,4 27.653,4.895 27.653,6L27.653,18.667C27.653,19.771 26.664,20.667 25.445,20.667L23.237,20.667C22.018,20.667 21.03,19.771 21.03,18.667L21.03,6C21.03,4.895 22.018,4 23.237,4ZM15.141,8.667L12.933,8.667C11.714,8.667 10.725,9.562 10.725,10.667L10.725,18.667C10.725,19.771 11.714,20.667 12.933,20.667L15.141,20.667C16.36,20.667 17.348,19.771 17.348,18.667L17.348,10.667C17.348,9.562 16.36,8.667 15.141,8.667ZM4.837,12.667L2.629,12.667C1.41,12.667 0.421,13.562 0.421,14.667L0.421,18.667C0.421,19.771 1.41,20.667 2.629,20.667L4.837,20.667C6.056,20.667 7.044,19.771 7.044,18.667L7.044,14.667C7.044,13.562 6.056,12.667 4.837,12.667Z" clip-rule="evenodd" fill-rule="evenodd" fill="#FFFFFF"/>
</svg>
