<svg width="40" height="94" viewBox="0 0 40 94" fill="none" xmlns="http://www.w3.org/2000/svg" xmlns:xlink="http://www.w3.org/1999/xlink">
<path d="M32.306,80.559C32.051,80.522 31.759,80.486 31.505,80.486C26.589,79.903 24.295,76.845 24.295,71.092L24.295,29.403L32.706,29.403C35.983,29.403 38.604,26.745 38.604,23.505C38.604,20.264 35.983,17.643 32.706,17.643L24.295,17.643L24.295,8.285C24.295,6.247 23.458,4.39 22.111,3.042C20.764,1.695 18.943,0.858 16.868,0.858C12.79,0.858 9.477,4.208 9.477,8.285L9.477,17.643L5.035,17.643C1.794,17.643 -0.864,20.264 -0.864,23.505C-0.864,26.745 1.794,29.403 5.035,29.403L9.477,29.403L9.477,72.621C9.477,87.039 15.23,92.756 30.157,92.756C30.194,92.756 30.23,92.756 30.23,92.756C31.941,92.756 33.507,92.246 34.818,91.336C34.854,91.336 34.891,91.299 34.891,91.299C36.42,90.207 37.439,88.423 37.439,86.42C37.439,83.435 35.218,80.923 32.306,80.559Z" fill="#FFFFFF"/>
<path d="M37.44,86.421C37.44,88.423 36.42,90.207 34.891,91.299C34.891,91.299 34.855,91.336 34.818,91.336C33.871,91.991 32.743,92.355 31.505,92.355C28.192,92.355 25.534,89.697 25.534,86.421C25.534,83.144 28.192,80.486 31.505,80.486C31.76,80.486 32.051,80.522 32.306,80.559C35.219,80.923 37.44,83.435 37.44,86.421Z" fill="#FFFFFF"/>
</svg>
