<svg width="110" height="128" viewBox="0 0 110 128" fill="none" xmlns="http://www.w3.org/2000/svg" xmlns:xlink="http://www.w3.org/1999/xlink">
<path d="M74.981,9.285C75.527,4.406 72.069,0 67.19,-0.546C62.311,-1.128 57.905,2.367 57.359,7.246C56.704,12.816 57.614,19.479 58.779,26.324C62.02,27.307 65.151,28.727 68.064,30.402C71.195,23.011 74.253,15.693 74.981,9.285ZM109.243,30.693C107.313,26.179 102.07,24.14 97.555,26.069C91.62,28.655 85.467,33.715 79.278,38.922C81.608,41.216 83.792,43.801 85.649,46.604C92.676,45.731 99.412,44.675 104.619,42.417C109.133,40.415 111.209,35.172 109.243,30.693ZM94.278,6.882C90.346,3.969 84.776,4.77 81.863,8.702C77.421,14.673 74.435,23.594 71.195,32.295C72.287,33.024 73.306,33.752 74.29,34.516C75.018,35.099 75.782,35.718 76.547,36.337C83.974,30.73 91.693,25.268 96.135,19.297C99.048,15.365 98.211,9.794 94.278,6.882Z" clip-rule="evenodd" fill-rule="evenodd" fill="#FFFFFF"/>
<path d="M77.384,78.171C74.653,81.121 71.741,83.851 68.646,86.509C64.313,90.259 59.908,93.9 55.429,97.396C50.623,94.447 47.164,92.954 46.582,93.718C46.072,94.41 48.074,96.959 51.679,100.272C39.591,109.265 26.811,117.203 13.085,123.72C10.937,124.739 8.679,125.467 6.458,126.269C5.876,126.487 5.257,126.487 5.002,126.523C1.507,126.924 0.451,125.977 0.596,122.773C1.033,112.797 4.128,103.44 7.332,94.119C8.206,91.57 9.116,89.022 10.063,86.473C14.905,89.422 18.364,90.951 18.947,90.187C19.566,89.349 16.653,86 11.774,81.812C15.27,72.783 19.165,63.899 23.753,55.379C32.928,62.188 41.084,66.666 41.994,65.428C42.904,64.19 36.169,57.6 26.884,50.719L26.484,50.427C28.086,47.697 29.76,44.966 31.545,42.308C33.765,38.958 36.496,35.9 39.191,32.914C42.795,28.946 47.455,27.599 52.662,28.764C69.338,32.478 80.916,42.053 86.377,58.474C87.47,61.824 86.487,65.1 84.775,68.122C83.61,70.161 82.336,72.091 80.916,73.912C72.105,67.467 64.459,63.316 63.585,64.481C62.747,65.647 68.828,71.654 77.384,78.171Z" fill="#FFFFFF"/>
</svg>
