<svg width="98" height="114" viewBox="0 0 98 114" fill="none" xmlns="http://www.w3.org/2000/svg" xmlns:xlink="http://www.w3.org/1999/xlink">
<path d="M65.707,9.613C66.191,5.29 63.126,1.386 58.803,0.902C54.479,0.386 50.576,3.483 50.092,7.807C49.511,12.743 50.317,18.647 51.35,24.712C54.221,25.583 56.996,26.842 59.577,28.326C62.351,21.776 65.062,15.292 65.707,9.613ZM96.066,28.584C94.356,24.583 89.71,22.776 85.71,24.486C80.451,26.777 74.998,31.262 69.514,35.875C71.579,37.908 73.514,40.198 75.16,42.683C81.386,41.908 87.355,40.973 91.969,38.972C95.969,37.198 97.808,32.552 96.066,28.584ZM82.806,7.484C79.322,4.903 74.385,5.613 71.804,9.097C67.868,14.388 65.223,22.293 62.351,30.003C63.319,30.649 64.223,31.294 65.094,31.971C65.739,32.488 66.417,33.036 67.094,33.584C73.676,28.616 80.515,23.777 84.451,18.486C87.032,15.001 86.29,10.065 82.806,7.484Z" clip-rule="evenodd" fill-rule="evenodd" fill="#FFFFFF"/>
<path d="M67.836,70.655C65.417,73.268 62.836,75.687 60.093,78.043C56.254,81.366 52.35,84.592 48.382,87.689C44.123,85.076 41.058,83.753 40.542,84.431C40.09,85.044 41.865,87.302 45.059,90.238C34.348,98.207 23.023,105.24 10.86,111.015C8.957,111.918 6.957,112.564 4.988,113.273C4.472,113.467 3.924,113.467 3.698,113.499C0.601,113.854 -0.335,113.015 -0.206,110.176C0.181,101.336 2.924,93.045 5.763,84.786C6.537,82.527 7.344,80.269 8.182,78.01C12.473,80.624 15.538,81.979 16.055,81.301C16.603,80.559 14.022,77.591 9.699,73.881C12.796,65.88 16.248,58.008 20.313,50.458C28.444,56.491 35.67,60.46 36.477,59.363C37.283,58.266 31.315,52.426 23.088,46.328L22.733,46.07C24.153,43.651 25.637,41.231 27.218,38.876C29.186,35.908 31.605,33.197 33.993,30.552C37.187,27.035 41.316,25.842 45.93,26.874C60.706,30.165 70.966,38.65 75.805,53.2C76.773,56.169 75.902,59.072 74.386,61.75C73.353,63.557 72.224,65.267 70.966,66.88C63.158,61.169 56.383,57.491 55.609,58.524C54.867,59.556 60.255,64.88 67.836,70.655Z" fill="#FFFFFF"/>
</svg>
