<svg width="30" height="28" viewBox="0 0 30 28" fill="none" xmlns="http://www.w3.org/2000/svg" xmlns:xlink="http://www.w3.org/1999/xlink">
<path d="M28.473,24.418C28.867,24.818 29.086,25.344 29.064,25.891C29.064,26.439 28.845,26.944 28.429,27.344C28.035,27.723 27.487,27.955 26.918,27.955C26.348,27.955 25.801,27.765 25.384,27.386L12.987,15.47C12.789,15.281 12.636,15.049 12.527,14.796C12.417,14.544 12.351,14.27 12.351,13.996C12.351,13.723 12.417,13.449 12.527,13.175C12.636,12.923 12.789,12.691 12.987,12.501L25.384,0.585C25.582,0.396 25.822,0.227 26.085,0.122C26.37,0.017 26.655,-0.046 26.94,-0.046C27.224,-0.046 27.531,-0.004 27.794,0.101C28.057,0.206 28.298,0.375 28.517,0.564C28.714,0.754 28.867,1.006 28.977,1.259C29.108,1.512 29.152,1.785 29.152,2.08C29.152,2.354 29.086,2.627 28.977,2.88C28.867,3.133 28.692,3.364 28.473,3.575L17.63,13.996L19.689,15.954L28.473,24.418Z" fill="#B3B3B3" stroke="#B3B3B3" stroke-width="0.1" stroke-miterlimit="3.999327"/>
<path d="M16.95,24.418C17.344,24.818 17.563,25.344 17.541,25.891C17.541,26.439 17.322,26.944 16.906,27.344C16.512,27.723 15.964,27.954 15.394,27.954C14.825,27.954 14.277,27.765 13.861,27.386L1.463,15.47C1.266,15.28 1.113,15.049 1.003,14.796C0.894,14.544 0.828,14.27 0.828,13.996C0.828,13.722 0.894,13.449 1.003,13.175C1.113,12.922 1.266,12.691 1.463,12.501L13.861,0.585C14.058,0.396 14.299,0.227 14.562,0.122C14.847,0.017 15.132,-0.047 15.416,-0.047C15.701,-0.047 16.008,-0.004 16.271,0.101C16.533,0.206 16.774,0.375 16.993,0.564C17.191,0.754 17.344,1.006 17.453,1.259C17.585,1.511 17.629,1.785 17.629,2.08C17.629,2.354 17.563,2.627 17.453,2.88C17.344,3.133 17.169,3.364 16.95,3.575L6.107,13.996L8.166,15.954L16.95,24.418Z" transform="rotate(-360 9.228 13.954)" fill="#B3B3B3" stroke="#B3B3B3" stroke-width="0.1" stroke-miterlimit="3.999327"/>
</svg>
