<svg width="32" height="32" viewBox="0 0 32 32" fill="none" xmlns="http://www.w3.org/2000/svg" xmlns:xlink="http://www.w3.org/1999/xlink">
<path d="M31.247,26.608C31.684,27.052 31.927,27.636 31.903,28.243C31.903,28.85 31.66,29.411 31.198,29.855C30.761,30.275 30.153,30.532 29.521,30.532C28.89,30.532 28.282,30.322 27.82,29.902L14.066,16.681C13.847,16.471 13.677,16.214 13.556,15.934C13.434,15.654 13.361,15.35 13.361,15.046C13.361,14.743 13.434,14.439 13.556,14.136C13.677,13.855 13.847,13.598 14.066,13.388L27.82,0.168C28.039,-0.042 28.306,-0.229 28.598,-0.346C28.914,-0.463 29.23,-0.533 29.546,-0.533C29.862,-0.533 30.202,-0.486 30.494,-0.369C30.785,-0.252 31.052,-0.066 31.295,0.145C31.514,0.355 31.684,0.635 31.806,0.915C31.952,1.196 32,1.499 32,1.826C32,2.13 31.927,2.434 31.806,2.714C31.684,2.994 31.49,3.251 31.247,3.485L19.218,15.046L21.502,17.219L31.247,26.608Z" fill="#181725" stroke="#181725" stroke-width="0.1" stroke-miterlimit="3.999327"/>
<path d="M18.463,26.608C18.9,27.052 19.143,27.636 19.119,28.243C19.119,28.85 18.876,29.411 18.414,29.855C17.977,30.275 17.369,30.532 16.737,30.532C16.106,30.532 15.498,30.322 15.036,29.902L1.282,16.681C1.063,16.471 0.893,16.214 0.772,15.934C0.65,15.654 0.577,15.35 0.577,15.046C0.577,14.743 0.65,14.439 0.772,14.136C0.893,13.855 1.063,13.598 1.282,13.388L15.036,0.168C15.255,-0.042 15.522,-0.229 15.814,-0.346C16.13,-0.463 16.446,-0.533 16.762,-0.533C17.078,-0.533 17.418,-0.486 17.709,-0.369C18.001,-0.252 18.268,-0.066 18.511,0.145C18.73,0.355 18.9,0.635 19.022,0.915C19.168,1.196 19.216,1.499 19.216,1.826C19.216,2.13 19.143,2.434 19.022,2.714C18.9,2.994 18.706,3.251 18.463,3.485L6.434,15.046L8.718,17.219L18.463,26.608Z" transform="rotate(-360 9.897 15)" fill="#181725" stroke="#181725" stroke-width="0.1" stroke-miterlimit="3.999327"/>
</svg>
