<svg width="30" height="30" viewBox="0 0 30 30" fill="none" xmlns="http://www.w3.org/2000/svg" xmlns:xlink="http://www.w3.org/1999/xlink">
<path d="M28.473,24.464C28.867,24.864 29.086,25.39 29.064,25.938C29.064,26.485 28.845,26.991 28.429,27.391C28.035,27.77 27.487,28.001 26.917,28.001C26.348,28.001 25.8,27.812 25.384,27.433L12.986,15.516C12.789,15.327 12.636,15.095 12.526,14.843C12.417,14.59 12.351,14.316 12.351,14.043C12.351,13.769 12.417,13.495 12.526,13.222C12.636,12.969 12.789,12.737 12.986,12.548L25.384,0.632C25.581,0.442 25.822,0.274 26.085,0.168C26.37,0.063 26.655,0 26.939,0C27.224,0 27.531,0.042 27.794,0.147C28.057,0.253 28.297,0.421 28.517,0.611C28.714,0.8 28.867,1.053 28.976,1.305C29.108,1.558 29.152,1.832 29.152,2.126C29.152,2.4 29.086,2.674 28.976,2.926C28.867,3.179 28.692,3.411 28.473,3.621L17.63,14.043L19.689,16.001L28.473,24.464Z" fill="#B3B3B3" stroke="#B3B3B3" stroke-width="0.1" stroke-miterlimit="3.999327"/>
<path d="M16.949,24.464C17.344,24.864 17.563,25.39 17.541,25.938C17.541,26.485 17.322,26.99 16.906,27.39C16.511,27.769 15.964,28.001 15.394,28.001C14.825,28.001 14.277,27.811 13.861,27.432L1.463,15.516C1.266,15.327 1.113,15.095 1.003,14.843C0.893,14.59 0.828,14.316 0.828,14.043C0.828,13.769 0.893,13.495 1.003,13.221C1.113,12.969 1.266,12.737 1.463,12.548L13.861,0.631C14.058,0.442 14.299,0.274 14.562,0.168C14.847,0.063 15.131,0 15.416,0C15.701,0 16.008,0.042 16.27,0.147C16.533,0.253 16.774,0.421 16.993,0.61C17.19,0.8 17.344,1.053 17.453,1.305C17.585,1.558 17.628,1.832 17.628,2.126C17.628,2.4 17.563,2.674 17.453,2.926C17.344,3.179 17.168,3.411 16.949,3.621L6.107,14.043L8.166,16.001L16.949,24.464Z" transform="rotate(-360 9.228 14)" fill="#B3B3B3" stroke="#B3B3B3" stroke-width="0.1" stroke-miterlimit="3.999327"/>
</svg>
