<svg width="32" height="32" viewBox="0 0 32 32" fill="none" xmlns="http://www.w3.org/2000/svg" xmlns:xlink="http://www.w3.org/1999/xlink">
<path d="M30.295,26.608C30.732,27.052 30.975,27.636 30.951,28.243C30.951,28.85 30.708,29.411 30.246,29.855C29.809,30.275 29.201,30.532 28.569,30.532C27.938,30.532 27.33,30.322 26.868,29.902L13.114,16.681C12.895,16.471 12.725,16.214 12.604,15.934C12.482,15.654 12.409,15.35 12.409,15.046C12.409,14.743 12.482,14.439 12.604,14.136C12.725,13.855 12.895,13.598 13.114,13.388L26.868,0.168C27.087,-0.042 27.354,-0.229 27.646,-0.346C27.962,-0.463 28.278,-0.533 28.594,-0.533C28.91,-0.533 29.25,-0.486 29.541,-0.369C29.833,-0.252 30.1,-0.066 30.343,0.145C30.562,0.355 30.732,0.635 30.854,0.915C31,1.196 31.048,1.499 31.048,1.826C31.048,2.13 30.975,2.434 30.854,2.714C30.732,2.994 30.538,3.251 30.295,3.485L18.266,15.046L20.55,17.219L30.295,26.608Z" fill="#181725" stroke="#181725" stroke-width="0.1" stroke-miterlimit="3.999327"/>
<path d="M17.511,26.608C17.948,27.052 18.191,27.636 18.167,28.243C18.167,28.85 17.924,29.411 17.462,29.855C17.025,30.275 16.417,30.532 15.785,30.532C15.153,30.532 14.546,30.322 14.084,29.902L0.33,16.681C0.111,16.471 -0.059,16.214 -0.181,15.934C-0.302,15.654 -0.375,15.35 -0.375,15.046C-0.375,14.743 -0.302,14.439 -0.181,14.136C-0.059,13.855 0.111,13.598 0.33,13.388L14.084,0.168C14.303,-0.042 14.57,-0.229 14.862,-0.346C15.178,-0.463 15.494,-0.533 15.81,-0.533C16.125,-0.533 16.466,-0.486 16.757,-0.369C17.049,-0.252 17.316,-0.066 17.559,0.145C17.778,0.355 17.948,0.635 18.07,0.915C18.215,1.196 18.264,1.499 18.264,1.826C18.264,2.13 18.191,2.434 18.07,2.714C17.948,2.994 17.754,3.251 17.511,3.485L5.482,15.046L7.766,17.219L17.511,26.608Z" transform="rotate(-360 8.944 15)" fill="#181725" stroke="#181725" stroke-width="0.1" stroke-miterlimit="3.999327"/>
</svg>
