<svg width="30" height="28" viewBox="0 0 30 28" fill="none" xmlns="http://www.w3.org/2000/svg" xmlns:xlink="http://www.w3.org/1999/xlink">
<path d="M28.473,24.454C28.867,24.854 29.086,25.381 29.064,25.928C29.064,26.475 28.845,26.981 28.429,27.381C28.035,27.76 27.487,27.991 26.917,27.991C26.348,27.991 25.8,27.802 25.384,27.423L12.986,15.507C12.789,15.317 12.636,15.086 12.526,14.833C12.417,14.58 12.351,14.307 12.351,14.033C12.351,13.759 12.417,13.485 12.526,13.212C12.636,12.959 12.789,12.728 12.986,12.538L25.384,0.622C25.581,0.432 25.822,0.264 26.085,0.159C26.37,0.053 26.655,-0.01 26.939,-0.01C27.224,-0.01 27.531,0.032 27.794,0.138C28.057,0.243 28.297,0.411 28.517,0.601C28.714,0.79 28.867,1.043 28.976,1.296C29.108,1.548 29.152,1.822 29.152,2.117C29.152,2.39 29.086,2.664 28.976,2.917C28.867,3.169 28.692,3.401 28.473,3.611L17.63,14.033L19.689,15.991L28.473,24.454Z" fill="#B3B3B3" stroke="#B3B3B3" stroke-width="0.1" stroke-miterlimit="3.999327"/>
<path d="M16.949,24.454C17.344,24.854 17.563,25.381 17.541,25.928C17.541,26.475 17.322,26.981 16.906,27.381C16.511,27.76 15.964,27.991 15.394,27.991C14.825,27.991 14.277,27.802 13.861,27.423L1.463,15.507C1.266,15.317 1.113,15.085 1.003,14.833C0.893,14.58 0.828,14.306 0.828,14.033C0.828,13.759 0.893,13.485 1.003,13.212C1.113,12.959 1.266,12.727 1.463,12.538L13.861,0.622C14.058,0.432 14.299,0.264 14.562,0.159C14.847,0.053 15.131,-0.01 15.416,-0.01C15.701,-0.01 16.008,0.032 16.27,0.137C16.533,0.243 16.774,0.411 16.993,0.601C17.19,0.79 17.344,1.043 17.453,1.295C17.585,1.548 17.628,1.822 17.628,2.117C17.628,2.39 17.563,2.664 17.453,2.917C17.344,3.169 17.168,3.401 16.949,3.611L6.107,14.033L8.166,15.991L16.949,24.454Z" transform="rotate(-360 9.228 13.991)" fill="#B3B3B3" stroke="#B3B3B3" stroke-width="0.1" stroke-miterlimit="3.999327"/>
</svg>
