<svg width="546" height="482" viewBox="0 0 546 482" fill="none" xmlns="http://www.w3.org/2000/svg" xmlns:xlink="http://www.w3.org/1999/xlink">
<path d="M458.555,96.722C456.906,96.561 455.439,97.768 455.279,99.417C455.119,101.066 456.326,102.533 457.975,102.694L458.555,96.722ZM541.498,24.27C543.152,24.166 544.409,22.742 544.305,21.088C544.202,19.435 542.778,18.178 541.124,18.281L541.498,24.27ZM457.975,102.694C466.291,103.502 479.083,102.581 490.652,97.132C502.353,91.621 512.825,81.441 515.923,63.982L510.016,62.933C507.313,78.165 498.342,86.878 488.095,91.704C477.717,96.592 466.057,97.451 458.555,96.722L457.975,102.694ZM515.923,63.982C521.611,31.927 536.471,24.584 541.498,24.27L541.124,18.281C532.091,18.846 515.929,29.606 510.016,62.933L515.923,63.982Z" fill="#F3603F"/>
<circle cx="317.794" cy="233.054" r="158.152" fill="#53B175"/>
<g filter="url(#filter41_1411)">
<circle cx="317.794" cy="233.054" r="138.283" stroke="#FFFFFF" stroke-opacity="0.7" stroke-width="2" stroke-miterlimit="3.999327"/>
</g>
<path d="M388.075,198.455C388.075,202.761 386.385,206.919 383.312,209.889L311.879,279.087C308.653,282.057 304.352,283.839 299.897,283.839C295.442,283.839 291.14,282.057 288.068,279.087L252.274,244.488C249.202,241.518 247.512,237.36 247.512,233.054C247.512,228.748 249.356,224.738 252.428,221.62C255.654,218.65 259.802,217.017 264.257,216.868C268.712,216.868 272.86,218.501 276.086,221.471L299.897,244.488L359.501,186.872C362.727,183.902 366.875,182.269 371.33,182.269C375.785,182.418 379.933,184.051 383.159,187.169C386.231,190.139 388.075,194.149 388.075,198.455Z" fill="#FFFFFF"/>
<path d="M437.04,388.324C435.448,387.864 433.785,388.782 433.325,390.373C432.866,391.965 433.783,393.628 435.375,394.088L437.04,388.324ZM472.603,442.005C472.392,443.648 473.554,445.151 475.197,445.362C476.84,445.573 478.344,444.411 478.554,442.768L472.603,442.005ZM435.375,394.088C442.38,396.112 452.731,401.011 460.793,409.01C468.781,416.935 474.427,427.78 472.603,442.005L478.554,442.768C480.668,426.285 474.011,413.672 465.019,404.75C456.102,395.903 444.8,390.565 437.04,388.324L435.375,394.088Z" fill="#F7B23B"/>
<path d="M4.213,345.063C2.662,344.479 0.932,345.262 0.348,346.813C-0.236,348.363 0.547,350.094 2.098,350.678L4.213,345.063ZM64.064,283.873L63.935,280.876C62.761,280.926 61.724,281.657 61.283,282.747L64.064,283.873ZM139.026,297.763C139.872,296.338 139.403,294.497 137.979,293.652C136.554,292.806 134.713,293.275 133.867,294.7L139.026,297.763ZM2.098,350.678C13.757,355.069 32.187,358.873 49.673,355.881C67.358,352.855 84.165,342.817 91.635,319.662L85.924,317.819C79.27,338.447 64.593,347.241 48.661,349.967C32.53,352.727 15.21,349.205 4.213,345.063L2.098,350.678ZM91.737,319.245C92.825,312.87 92.876,303.222 89.192,295.141C87.325,291.046 84.463,287.282 80.234,284.635C75.999,281.983 70.612,280.59 63.935,280.876L64.192,286.87C69.873,286.627 74.013,287.819 77.05,289.72C80.095,291.627 82.253,294.384 83.733,297.63C86.743,304.232 86.794,312.547 85.822,318.236L91.737,319.245ZM61.283,282.747C58.787,288.908 56.929,298.492 60.216,306.772C61.896,311.004 64.898,314.818 69.661,317.533C74.38,320.223 80.656,321.74 88.78,321.74L88.78,315.74C81.368,315.74 76.197,314.352 72.633,312.321C69.114,310.315 66.996,307.591 65.792,304.558C63.312,298.31 64.632,290.461 66.844,284.999L61.283,282.747ZM88.232,321.69C99.264,323.739 124.74,321.824 139.026,297.763L133.867,294.7C121.319,315.834 98.892,317.567 89.327,315.791L88.232,321.69Z" fill="#6E89FA"/>
<circle cx="362.697" cy="464.846" r="15.159" fill="#637BFE"/>
<circle cx="506.005" cy="224.791" r="15.159" stroke="#C05EFD" stroke-width="1" stroke-miterlimit="3.999327"/>
<circle cx="265.368" cy="15.992" r="16.601" fill="#53B175"/>
<circle cx="312.501" cy="44.012" r="8.767" fill="#F3603F"/>
<circle cx="119.273" cy="172.762" r="15.364" stroke="#F7B23B" stroke-width="1" stroke-miterlimit="3.999327"/>
<circle cx="154.563" cy="415.023" r="16.894" stroke="#53B175" stroke-width="1" stroke-miterlimit="3.999327"/>
<circle cx="315.561" cy="447.461" r="8.071" transform="rotate(360 315.561 447.461)" fill="#53B175"/>
<defs>
<filter id="filter41_1411" x="175.510498" y="90.770996" width="146.283203" height="146.283203" filterUnits="userSpaceOnUse" color-interpolation-filters="sRGB">
<feFlood flood-opacity="0" result="BackgroundImageFix"/>
<feColorMatrix in="SourceAlpha" type="matrix" values="0 0 0 0 0 0 0 0 0 0 0 0 0 0 0 0 0 0 127 0" result="hardAlpha"/>
<feMorphology radius="0" operator="dilate" in="SourceAlpha" result="0dropshadow"/>
<feOffset dx="0" dy="3"/>
<feGaussianBlur stdDeviation="2"/>
<feComposite in2="hardAlpha" operator="out"/>
<feColorMatrix type="matrix" values="0 0 0 0 0 0 0 0 0 0 0 0 0 0 0 0 0 0 0.12 0"/>
<feBlend mode="normal" in2="BackgroundImageFix" result="0dropshadow"/>
<feBlend mode="normal" in="SourceGraphic" in2="0dropshadow" result="shape"/>
</filter>
</defs>
</svg>
