<svg width="30" height="28" viewBox="0 0 30 28" fill="none" xmlns="http://www.w3.org/2000/svg" xmlns:xlink="http://www.w3.org/1999/xlink">
<path d="M28.473,24.372C28.867,24.772 29.086,25.298 29.064,25.846C29.064,26.393 28.845,26.898 28.429,27.298C28.035,27.677 27.487,27.909 26.917,27.909C26.348,27.909 25.8,27.719 25.384,27.34L12.986,15.424C12.789,15.235 12.636,15.003 12.526,14.75C12.417,14.498 12.351,14.224 12.351,13.95C12.351,13.677 12.417,13.403 12.526,13.129C12.636,12.877 12.789,12.645 12.986,12.456L25.384,0.539C25.581,0.35 25.822,0.181 26.085,0.076C26.37,-0.029 26.655,-0.092 26.939,-0.092C27.224,-0.092 27.531,-0.05 27.794,0.055C28.057,0.16 28.297,0.329 28.517,0.518C28.714,0.708 28.867,0.96 28.976,1.213C29.108,1.466 29.152,1.739 29.152,2.034C29.152,2.308 29.086,2.581 28.976,2.834C28.867,3.087 28.692,3.318 28.473,3.529L17.63,13.95L19.689,15.908L28.473,24.372Z" fill="#B3B3B3" stroke="#B3B3B3" stroke-width="0.1" stroke-miterlimit="3.999327"/>
<path d="M16.949,24.372C17.344,24.772 17.563,25.298 17.541,25.845C17.541,26.393 17.322,26.898 16.906,27.298C16.511,27.677 15.964,27.909 15.394,27.909C14.825,27.909 14.277,27.719 13.861,27.34L1.463,15.424C1.266,15.235 1.113,15.003 1.003,14.75C0.893,14.498 0.828,14.224 0.828,13.95C0.828,13.677 0.893,13.403 1.003,13.129C1.113,12.877 1.266,12.645 1.463,12.455L13.861,0.539C14.058,0.35 14.299,0.181 14.562,0.076C14.847,-0.029 15.131,-0.092 15.416,-0.092C15.701,-0.092 16.008,-0.05 16.27,0.055C16.533,0.16 16.774,0.329 16.993,0.518C17.19,0.708 17.344,0.96 17.453,1.213C17.585,1.466 17.628,1.739 17.628,2.034C17.628,2.308 17.563,2.581 17.453,2.834C17.344,3.087 17.168,3.318 16.949,3.529L6.107,13.95L8.166,15.908L16.949,24.372Z" transform="rotate(-360 9.228 13.908)" fill="#B3B3B3" stroke="#B3B3B3" stroke-width="0.1" stroke-miterlimit="3.999327"/>
</svg>
