<svg width="22" height="38" viewBox="0 0 22 38" fill="none" xmlns="http://www.w3.org/2000/svg" xmlns:xlink="http://www.w3.org/1999/xlink">
<path d="M19.214,31.717C19.683,32.232 19.944,32.908 19.918,33.612C19.918,34.316 19.657,34.965 19.162,35.48C18.693,35.967 18.041,36.265 17.363,36.265C16.685,36.265 16.033,36.021 15.537,35.534L0.779,20.214C0.544,19.97 0.361,19.672 0.231,19.347C0.101,19.023 0.022,18.671 0.022,18.319C0.022,17.967 0.101,17.615 0.231,17.263C0.361,16.938 0.544,16.641 0.779,16.397L15.537,1.077C15.772,0.833 16.059,0.617 16.372,0.481C16.711,0.346 17.05,0.265 17.389,0.265C17.728,0.265 18.093,0.319 18.406,0.454C18.719,0.589 19.006,0.806 19.266,1.05C19.501,1.293 19.683,1.618 19.814,1.943C19.97,2.268 20.022,2.62 20.022,2.998C20.022,3.35 19.944,3.702 19.814,4.027C19.683,4.352 19.475,4.65 19.214,4.92L6.307,18.319L8.758,20.836L19.214,31.717Z" fill="#181725"/>
</svg>
