<svg width="36" height="38" viewBox="0 0 36 38" fill="none" xmlns="http://www.w3.org/2000/svg" xmlns:xlink="http://www.w3.org/1999/xlink">
<path d="M15.033,28.143C16.609,28.143 18.17,27.832 19.625,27.229C21.081,26.626 22.404,25.742 23.518,24.628C24.633,23.514 25.517,22.191 26.12,20.735C26.723,19.279 27.033,17.718 27.033,16.143C27.033,14.567 26.723,13.006 26.12,11.55C25.517,10.095 24.633,8.772 23.518,7.657C22.404,6.543 21.081,5.659 19.625,5.056C18.17,4.453 16.609,4.143 15.033,4.143C11.851,4.143 8.798,5.407 6.548,7.657C4.298,9.908 3.033,12.96 3.033,16.143C3.033,19.325 4.298,22.377 6.548,24.628C8.798,26.878 11.851,28.143 15.033,28.143ZM27.673,25.955L34.833,33.115C35.024,33.299 35.176,33.52 35.281,33.764C35.386,34.008 35.441,34.271 35.443,34.536C35.445,34.802 35.394,35.065 35.293,35.311C35.193,35.557 35.044,35.78 34.856,35.967C34.668,36.155 34.445,36.303 34.199,36.404C33.953,36.504 33.69,36.555 33.424,36.552C33.158,36.55 32.896,36.494 32.652,36.389C32.408,36.284 32.188,36.132 32.003,35.941L24.843,28.781C21.628,31.276 17.583,32.453 13.531,32.071C9.479,31.689 5.724,29.777 3.032,26.725C0.34,23.672 -1.087,19.709 -0.96,15.64C-0.832,11.572 0.841,7.706 3.719,4.828C6.596,1.95 10.463,0.277 14.531,0.149C18.599,0.022 22.563,1.45 25.615,4.142C28.668,6.834 30.58,10.588 30.962,14.64C31.344,18.692 30.167,22.738 27.671,25.953L27.673,25.955Z" fill="#53B175"/>
</svg>
