<svg width="16" height="28" viewBox="0 0 16 28" fill="none" xmlns="http://www.w3.org/2000/svg" xmlns:xlink="http://www.w3.org/1999/xlink">
<path d="M15.321,24.463C15.715,24.863 15.934,25.389 15.912,25.937C15.912,26.484 15.693,26.989 15.277,27.389C14.883,27.768 14.335,28 13.766,28C13.196,28 12.649,27.811 12.233,27.432L-0.165,15.516C-0.362,15.326 -0.515,15.095 -0.625,14.842C-0.734,14.589 -0.8,14.316 -0.8,14.042C-0.8,13.768 -0.734,13.495 -0.625,13.221C-0.515,12.968 -0.362,12.737 -0.165,12.547L12.233,0.632C12.43,0.442 12.671,0.274 12.933,0.168C13.218,0.063 13.503,0 13.788,0C14.072,0 14.379,0.042 14.642,0.147C14.905,0.253 15.146,0.421 15.365,0.611C15.562,0.8 15.715,1.053 15.825,1.305C15.956,1.558 16,1.832 16,2.126C16,2.4 15.934,2.674 15.825,2.926C15.715,3.179 15.54,3.411 15.321,3.621L4.479,14.042L6.538,16L15.321,24.463Z" transform="rotate(-360 7.6 14)" fill="#181725"/>
</svg>
