<svg width="36" height="36" viewBox="0 0 36 36" fill="none" xmlns="http://www.w3.org/2000/svg" xmlns:xlink="http://www.w3.org/1999/xlink">
<path d="M34.258,17.419C34.258,18.171 33.97,18.897 33.431,19.423C32.905,19.962 32.178,20.263 31.426,20.263L20.097,20.263L20.097,31.588C20.097,32.339 19.796,33.066 19.257,33.592C18.731,34.118 18.016,34.419 17.264,34.419C16.513,34.419 15.786,34.118 15.259,33.592C14.72,33.066 14.42,32.339 14.42,31.588L14.42,20.263L3.091,20.263C2.339,20.263 1.612,19.962 1.085,19.423C0.559,18.897 0.258,18.171 0.258,17.419C0.258,16.667 0.559,15.953 1.085,15.415C1.612,14.888 2.339,14.588 3.091,14.588L14.42,14.588L14.42,3.263C14.42,2.511 14.72,1.784 15.259,1.258C15.786,0.72 16.513,0.419 17.264,0.419C18.016,0.419 18.731,0.72 19.257,1.258C19.796,1.784 20.097,2.511 20.097,3.263L20.097,14.588L31.426,14.588C32.178,14.588 32.905,14.888 33.431,15.415C33.97,15.953 34.258,16.667 34.258,17.419Z" fill="#FFFFFF"/>
</svg>
