<svg width="36" height="36" viewBox="0 0 36 36" fill="none" xmlns="http://www.w3.org/2000/svg" xmlns:xlink="http://www.w3.org/1999/xlink">
<path d="M34.619,17.362C34.619,18.113 34.331,18.84 33.792,19.366C33.266,19.905 32.539,20.206 31.787,20.206L20.458,20.206L20.458,31.531C20.458,32.282 20.157,33.009 19.618,33.535C19.092,34.061 18.377,34.362 17.625,34.362C16.873,34.362 16.147,34.061 15.62,33.535C15.081,33.009 14.781,32.282 14.781,31.531L14.781,20.206L3.451,20.206C2.7,20.206 1.973,19.905 1.446,19.366C0.92,18.84 0.619,18.113 0.619,17.362C0.619,16.61 0.92,15.896 1.446,15.357C1.973,14.831 2.7,14.531 3.451,14.531L14.781,14.531L14.781,3.206C14.781,2.454 15.081,1.727 15.62,1.201C16.147,0.662 16.873,0.362 17.625,0.362C18.377,0.362 19.092,0.662 19.618,1.201C20.157,1.727 20.458,2.454 20.458,3.206L20.458,14.531L31.787,14.531C32.539,14.531 33.266,14.831 33.792,15.357C34.331,15.896 34.619,16.61 34.619,17.362Z" fill="#53B175"/>
</svg>
