<svg width="36" height="34" viewBox="0 0 36 34" fill="none" xmlns="http://www.w3.org/2000/svg" xmlns:xlink="http://www.w3.org/1999/xlink">
<path d="M34.258,16.322C34.258,17.073 33.97,17.8 33.431,18.326C32.905,18.865 32.178,19.166 31.426,19.166L20.097,19.166L20.097,30.491C20.097,31.242 19.796,31.969 19.257,32.495C18.731,33.021 18.017,33.322 17.265,33.322C16.513,33.322 15.786,33.021 15.259,32.495C14.721,31.969 14.42,31.242 14.42,30.491L14.42,19.166L3.091,19.166C2.339,19.166 1.612,18.865 1.085,18.326C0.559,17.8 0.258,17.073 0.258,16.322C0.258,15.57 0.559,14.856 1.085,14.317C1.612,13.791 2.339,13.491 3.091,13.491L14.42,13.491L14.42,2.166C14.42,1.414 14.721,0.687 15.259,0.161C15.786,-0.378 16.513,-0.678 17.265,-0.678C18.017,-0.678 18.731,-0.378 19.257,0.161C19.796,0.687 20.097,1.414 20.097,2.166L20.097,13.491L31.426,13.491C32.178,13.491 32.905,13.791 33.431,14.317C33.97,14.856 34.258,15.57 34.258,16.322Z" fill="#FFFFFF"/>
</svg>
