<svg width="18" height="28" viewBox="0 0 18 28" fill="none" xmlns="http://www.w3.org/2000/svg" xmlns:xlink="http://www.w3.org/1999/xlink">
<path d="M16.369,24.463C16.763,24.863 16.982,25.389 16.96,25.937C16.96,26.484 16.741,26.989 16.325,27.389C15.931,27.768 15.383,28 14.814,28C14.244,28 13.697,27.811 13.28,27.432L0.883,15.516C0.686,15.326 0.533,15.095 0.423,14.842C0.314,14.589 0.248,14.316 0.248,14.042C0.248,13.768 0.314,13.495 0.423,13.221C0.533,12.968 0.686,12.737 0.883,12.547L13.28,0.632C13.478,0.442 13.719,0.274 13.981,0.168C14.266,0.063 14.551,0 14.836,0C15.12,0 15.427,0.042 15.69,0.147C15.953,0.253 16.194,0.421 16.413,0.611C16.61,0.8 16.763,1.053 16.873,1.305C17.004,1.558 17.048,1.832 17.048,2.126C17.048,2.4 16.982,2.674 16.873,2.926C16.763,3.179 16.588,3.411 16.369,3.621L5.527,14.042L7.586,16L16.369,24.463Z" transform="rotate(-360 8.648 14)" fill="#181725"/>
</svg>
