<svg width="46" height="40" viewBox="0 0 46 40" fill="none" xmlns="http://www.w3.org/2000/svg" xmlns:xlink="http://www.w3.org/1999/xlink">
<path d="M6.766,17.687L22.414,33.335L38.062,17.687C39.446,16.303 40.223,14.427 40.223,12.47C40.223,10.514 39.446,8.637 38.062,7.254C37.377,6.569 36.564,6.025 35.669,5.655C34.774,5.284 33.815,5.093 32.846,5.093C30.889,5.093 29.013,5.87 27.629,7.254L22.414,12.469L17.199,7.256C15.812,5.891 13.942,5.13 11.996,5.138C10.05,5.145 8.186,5.922 6.809,7.297C5.433,8.673 4.657,10.537 4.648,12.483C4.64,14.429 5.401,16.3 6.766,17.687ZM20.676,3.775L22.414,5.513L24.152,3.775C25.292,2.625 26.648,1.711 28.142,1.087C29.635,0.462 31.238,0.139 32.857,0.136C34.476,0.132 36.08,0.448 37.576,1.066C39.073,1.684 40.432,2.592 41.577,3.736C42.722,4.881 43.63,6.241 44.247,7.737C44.865,9.234 45.182,10.838 45.178,12.457C45.175,14.076 44.851,15.678 44.227,17.172C43.602,18.666 42.689,20.021 41.539,21.161L24.155,38.548C23.927,38.777 23.655,38.958 23.357,39.082C23.058,39.205 22.738,39.269 22.415,39.269C22.092,39.269 21.772,39.205 21.474,39.082C21.175,38.958 20.904,38.777 20.676,38.548L3.289,21.164C2.124,20.028 1.195,18.671 0.558,17.174C-0.079,15.676 -0.413,14.067 -0.423,12.439C-0.433,10.811 -0.121,9.198 0.497,7.692C1.115,6.186 2.026,4.818 3.177,3.667C4.328,2.516 5.696,1.605 7.201,0.987C8.707,0.369 10.32,0.056 11.948,0.066C13.576,0.076 15.185,0.41 16.683,1.047C18.181,1.684 19.537,2.612 20.673,3.777L20.676,3.775Z" fill="#181725"/>
</svg>
