<svg width="42" height="42" viewBox="0 0 42 42" fill="none" xmlns="http://www.w3.org/2000/svg" xmlns:xlink="http://www.w3.org/1999/xlink">
<path d="M12.808,4.704L6.808,4.704C6.277,4.704 5.768,4.914 5.393,5.289C5.018,5.664 4.808,6.173 4.808,6.704L4.808,10.704C4.808,11.234 5.018,11.743 5.393,12.118C5.768,12.493 6.277,12.704 6.808,12.704L10.808,12.704C11.338,12.704 11.847,12.493 12.222,12.118C12.597,11.743 12.808,11.234 12.808,10.704L12.808,4.704ZM6.828,16.704L6.828,36.634L10.808,36.634L10.808,26.704C10.808,25.643 11.229,24.625 11.979,23.875C12.729,23.125 13.747,22.704 14.808,22.704L18.808,22.704C19.868,22.704 20.886,23.125 21.636,23.875C22.386,24.625 22.808,25.643 22.808,26.704L22.808,36.634L34.834,36.634L34.834,16.704L30.808,16.704C29.272,16.704 27.868,16.126 26.808,15.176C25.709,16.161 24.284,16.706 22.808,16.704L18.808,16.704C17.272,16.704 15.868,16.126 14.808,15.176C13.709,16.161 12.284,16.706 10.808,16.704L6.828,16.704ZM2.828,15.196C2.192,14.633 1.682,13.941 1.334,13.167C0.986,12.393 0.806,11.553 0.808,10.704L0.808,6.704C0.808,5.112 1.44,3.586 2.565,2.461C3.69,1.336 5.216,0.704 6.808,0.704L34.808,0.704C36.399,0.704 37.925,1.336 39.05,2.461C40.175,3.586 40.808,5.112 40.808,6.704L40.808,10.704C40.808,12.468 40.048,14.056 38.834,15.154L38.834,36.634C38.834,37.694 38.412,38.712 37.662,39.462C36.912,40.212 35.894,40.634 34.834,40.634L19.554,40.634C19.308,40.68 19.058,40.704 18.808,40.704L14.808,40.704C14.557,40.704 14.308,40.68 14.062,40.634L6.83,40.634C5.769,40.634 4.751,40.212 4.001,39.462C3.251,38.712 2.83,37.694 2.83,36.634L2.83,15.194L2.828,15.196ZM18.808,36.636L18.808,26.704L14.808,26.704L14.808,36.634L18.808,36.634L18.808,36.636ZM24.808,4.704L16.808,4.704L16.808,10.704C16.808,11.234 17.018,11.743 17.393,12.118C17.768,12.493 18.277,12.704 18.808,12.704L22.808,12.704C23.338,12.704 23.847,12.493 24.222,12.118C24.597,11.743 24.808,11.234 24.808,10.704L24.808,4.704ZM28.808,4.704L28.808,10.704C28.808,11.234 29.018,11.743 29.393,12.118C29.768,12.493 30.277,12.704 30.808,12.704L34.808,12.704C35.338,12.704 35.847,12.493 36.222,12.118C36.597,11.743 36.808,11.234 36.808,10.704L36.808,6.704C36.808,6.173 36.597,5.664 36.222,5.289C35.847,4.914 35.338,4.704 34.808,4.704L28.808,4.704ZM28.808,22.704L30.808,22.704C31.338,22.704 31.847,22.914 32.222,23.289C32.597,23.664 32.808,24.173 32.808,24.704L32.808,30.704C32.808,31.234 32.597,31.743 32.222,32.118C31.847,32.493 31.338,32.704 30.808,32.704L28.808,32.704C28.277,32.704 27.768,32.493 27.393,32.118C27.018,31.743 26.808,31.234 26.808,30.704L26.808,24.704C26.808,24.173 27.018,23.664 27.393,23.289C27.768,22.914 28.277,22.704 28.808,22.704L28.808,22.704Z" fill="#181725" stroke="#FFFFFF" stroke-width="0.1" stroke-miterlimit="3.999327"/>
</svg>
