<svg width="34" height="6" viewBox="0 0 34 6" fill="none" xmlns="http://www.w3.org/2000/svg" xmlns:xlink="http://www.w3.org/1999/xlink">
<path d="M33.488,2.193C33.488,2.945 33.2,3.671 32.661,4.197C32.135,4.736 31.408,5.037 30.656,5.037L19.327,5.037L13.65,5.037L2.321,5.037C1.569,5.037 0.842,4.736 0.315,4.197C-0.211,3.671 -0.512,2.945 -0.512,2.193C-0.512,1.441 -0.211,0.727 0.315,0.189C0.842,-0.338 1.569,-0.638 2.321,-0.638L13.65,-0.638L19.327,-0.638L30.656,-0.638C31.408,-0.638 32.135,-0.338 32.661,0.189C33.2,0.727 33.488,1.441 33.488,2.193Z" fill="#B3B3B3"/>
</svg>
