<svg width="70" height="78" viewBox="0 0 70 78" fill="none" xmlns="http://www.w3.org/2000/svg" xmlns:xlink="http://www.w3.org/1999/xlink">
<path d="M34.738,0.66C13.875,0.66 0.258,15.879 0.258,39.217C0.258,62.592 13.729,77.156 35.357,77.156C48.755,77.156 59.824,71.221 64.812,61.973C66.669,58.587 64.12,54.4 60.261,54.4L56.474,54.4C54.581,54.4 52.942,55.492 51.959,57.131C49.083,62.083 43.039,65.068 35.648,65.068C23.414,65.068 15.295,56.548 15.295,43.623L15.295,42.749L62.991,42.749C65.831,42.749 68.162,40.419 68.162,37.579L68.162,37.506C68.162,14.896 55.236,0.66 34.738,0.66ZM15.368,32.154C16.205,20.685 23.96,12.82 34.701,12.82C45.551,12.82 52.906,20.539 53.234,32.154L15.368,32.154Z" fill="#FFFFFF"/>
</svg>
