<svg width="38" height="78" viewBox="0 0 38 78" fill="none" xmlns="http://www.w3.org/2000/svg" xmlns:xlink="http://www.w3.org/1999/xlink">
<path d="M32.21,0.878C23.399,0.878 16.554,5.902 14.187,14.204L13.932,14.204L13.932,8.742C13.932,4.81 10.728,1.643 6.833,1.643C2.9,1.643 -0.304,4.81 -0.304,8.742L-0.304,68.818C-0.304,70.857 0.534,72.75 1.881,74.098C3.228,75.445 5.085,76.282 7.16,76.282C11.275,76.282 14.624,72.933 14.624,68.818L14.624,31.753C14.624,21.231 20.814,14.422 30.644,14.422C31.045,14.422 31.482,14.422 31.882,14.459C34.941,14.568 37.417,12.056 37.417,8.997L37.417,6.121C37.417,3.245 35.086,0.878 32.21,0.878Z" fill="#FFFFFF"/>
</svg>
