<svg width="34" height="36" viewBox="0 0 34 36" fill="none" xmlns="http://www.w3.org/2000/svg" xmlns:xlink="http://www.w3.org/1999/xlink">
<path d="M33.98,17.356C33.98,18.108 33.692,18.835 33.153,19.361C32.627,19.9 31.9,20.2 31.148,20.2L19.819,20.2L19.819,31.525C19.819,32.277 19.518,33.003 18.979,33.53C18.453,34.056 17.738,34.356 16.986,34.356C16.234,34.356 15.507,34.056 14.981,33.53C14.442,33.003 14.141,32.277 14.141,31.525L14.141,20.2L2.812,20.2C2.06,20.2 1.333,19.9 0.807,19.361C0.281,18.835 -0.02,18.108 -0.02,17.356C-0.02,16.605 0.281,15.891 0.807,15.352C1.333,14.826 2.06,14.525 2.812,14.525L14.141,14.525L14.141,3.2C14.141,2.449 14.442,1.722 14.981,1.196C15.507,0.657 16.234,0.356 16.986,0.356C17.738,0.356 18.453,0.657 18.979,1.196C19.518,1.722 19.819,2.449 19.819,3.2L19.819,14.525L31.148,14.525C31.9,14.525 32.627,14.826 33.153,15.352C33.692,15.891 33.98,16.605 33.98,17.356Z" fill="#FFFFFF"/>
</svg>
