<svg width="36" height="36" viewBox="0 0 36 36" fill="none" xmlns="http://www.w3.org/2000/svg" xmlns:xlink="http://www.w3.org/1999/xlink">
<path d="M34.619,17.408C34.619,18.159 34.331,18.886 33.792,19.412C33.266,19.951 32.539,20.251 31.787,20.251L20.458,20.251L20.458,31.577C20.458,32.328 20.157,33.055 19.618,33.581C19.092,34.107 18.377,34.408 17.625,34.408C16.873,34.408 16.147,34.107 15.62,33.581C15.081,33.055 14.781,32.328 14.781,31.577L14.781,20.251L3.451,20.251C2.7,20.251 1.973,19.951 1.446,19.412C0.92,18.886 0.619,18.159 0.619,17.408C0.619,16.656 0.92,15.942 1.446,15.403C1.973,14.877 2.7,14.576 3.451,14.576L14.781,14.576L14.781,3.251C14.781,2.5 15.081,1.773 15.62,1.247C16.147,0.708 16.873,0.408 17.625,0.408C18.377,0.408 19.092,0.708 19.618,1.247C20.157,1.773 20.458,2.5 20.458,3.251L20.458,14.576L31.787,14.576C32.539,14.576 33.266,14.877 33.792,15.403C34.331,15.942 34.619,16.656 34.619,17.408Z" fill="#53B175"/>
</svg>
