<svg width="36" height="36" viewBox="0 0 36 36" fill="none" xmlns="http://www.w3.org/2000/svg" xmlns:xlink="http://www.w3.org/1999/xlink">
<path d="M34.619,17.454C34.619,18.206 34.331,18.932 33.792,19.459C33.266,19.997 32.539,20.298 31.787,20.298L20.458,20.298L20.458,31.623C20.458,32.375 20.157,33.101 19.618,33.627C19.092,34.154 18.377,34.454 17.625,34.454C16.873,34.454 16.147,34.154 15.62,33.627C15.081,33.101 14.781,32.375 14.781,31.623L14.781,20.298L3.451,20.298C2.7,20.298 1.973,19.997 1.446,19.459C0.92,18.932 0.619,18.206 0.619,17.454C0.619,16.702 0.92,15.988 1.446,15.45C1.973,14.924 2.7,14.623 3.451,14.623L14.781,14.623L14.781,3.298C14.781,2.546 15.081,1.82 15.62,1.293C16.147,0.755 16.873,0.454 17.625,0.454C18.377,0.454 19.092,0.755 19.618,1.293C20.157,1.82 20.458,2.546 20.458,3.298L20.458,14.623L31.787,14.623C32.539,14.623 33.266,14.924 33.792,15.45C34.331,15.988 34.619,16.702 34.619,17.454Z" fill="#53B175"/>
</svg>
