<svg width="60" height="60" viewBox="0 0 60 60" fill="none" xmlns="http://www.w3.org/2000/svg" xmlns:xlink="http://www.w3.org/1999/xlink">
<path d="M30,60C15.858,60 8.787,60 4.393,55.606C0,51.213 0,44.142 0,30C0,15.858 0,8.787 4.393,4.393C8.787,0 15.858,0 30,0C44.142,0 51.213,0 55.606,4.393C60,8.787 60,15.858 60,30C60,44.142 60,51.213 55.606,55.606C51.213,60 44.142,60 30,60ZM30,18.75C31.243,18.75 32.25,19.757 32.25,21L32.25,27.75L39,27.75C40.243,27.75 41.25,28.757 41.25,30C41.25,31.243 40.243,32.25 39,32.25L32.25,32.25L32.25,39C32.25,40.243 31.243,41.25 30,41.25C28.757,41.25 27.75,40.243 27.75,39L27.75,32.25L21,32.25C19.757,32.25 18.75,31.243 18.75,30C18.75,28.757 19.757,27.75 21,27.75L27.75,27.75L27.75,21C27.75,19.757 28.757,18.75 30,18.75Z" clip-rule="evenodd" fill-rule="evenodd" fill="#53B175"/>
</svg>
