<svg width="36" height="36" viewBox="0 0 36 36" fill="none" xmlns="http://www.w3.org/2000/svg" xmlns:xlink="http://www.w3.org/1999/xlink">
<path d="M34.236,17.356C34.236,18.108 33.948,18.835 33.409,19.361C32.882,19.9 32.155,20.2 31.404,20.2L20.074,20.2L20.074,31.525C20.074,32.277 19.774,33.003 19.235,33.53C18.708,34.056 17.994,34.356 17.242,34.356C16.49,34.356 15.763,34.056 15.237,33.53C14.698,33.003 14.397,32.277 14.397,31.525L14.397,20.2L3.068,20.2C2.316,20.2 1.589,19.9 1.063,19.361C0.537,18.835 0.236,18.108 0.236,17.356C0.236,16.605 0.537,15.891 1.063,15.352C1.589,14.826 2.316,14.525 3.068,14.525L14.397,14.525L14.397,3.2C14.397,2.449 14.698,1.722 15.237,1.196C15.763,0.657 16.49,0.356 17.242,0.356C17.994,0.356 18.708,0.657 19.235,1.196C19.774,1.722 20.074,2.449 20.074,3.2L20.074,14.525L31.404,14.525C32.155,14.525 32.882,14.826 33.409,15.352C33.948,15.891 34.236,16.605 34.236,17.356Z" fill="#FFFFFF"/>
</svg>
