<svg width="48" height="40" viewBox="0 0 48 40" fill="none" xmlns="http://www.w3.org/2000/svg" xmlns:xlink="http://www.w3.org/1999/xlink">
<path d="M7.862,17.687L23.51,33.335L39.158,17.687C40.542,16.303 41.319,14.427 41.319,12.47C41.319,10.514 40.542,8.637 39.158,7.254C38.473,6.569 37.66,6.025 36.765,5.655C35.87,5.284 34.911,5.093 33.942,5.093C31.985,5.093 30.109,5.87 28.725,7.254L23.51,12.469L18.295,7.256C16.908,5.891 15.038,5.13 13.092,5.138C11.146,5.145 9.282,5.922 7.905,7.297C6.529,8.673 5.752,10.537 5.744,12.483C5.736,14.429 6.497,16.3 7.862,17.687ZM21.772,3.775L23.51,5.513L25.248,3.775C26.388,2.625 27.744,1.711 29.238,1.087C30.731,0.462 32.334,0.139 33.953,0.136C35.572,0.132 37.176,0.448 38.672,1.066C40.169,1.684 41.528,2.592 42.673,3.736C43.818,4.881 44.726,6.241 45.343,7.737C45.961,9.234 46.278,10.838 46.274,12.457C46.271,14.076 45.947,15.678 45.323,17.172C44.698,18.666 43.785,20.021 42.635,21.161L25.251,38.548C25.023,38.777 24.751,38.958 24.453,39.082C24.154,39.205 23.834,39.269 23.511,39.269C23.188,39.269 22.868,39.205 22.57,39.082C22.271,38.958 22,38.777 21.772,38.548L4.385,21.164C3.22,20.028 2.291,18.671 1.654,17.174C1.017,15.676 0.683,14.067 0.673,12.439C0.662,10.811 0.975,9.198 1.593,7.692C2.211,6.186 3.122,4.818 4.273,3.667C5.424,2.516 6.792,1.605 8.297,0.987C9.803,0.369 11.416,0.056 13.044,0.066C14.672,0.076 16.281,0.41 17.779,1.047C19.276,1.684 20.633,2.612 21.769,3.777L21.772,3.775Z" fill="#181725"/>
</svg>
