<svg width="40" height="42" viewBox="0 0 40 42" fill="none" xmlns="http://www.w3.org/2000/svg" xmlns:xlink="http://www.w3.org/1999/xlink">
<path d="M11.904,4.704L5.904,4.704C5.373,4.704 4.864,4.914 4.489,5.289C4.114,5.664 3.904,6.173 3.904,6.704L3.904,10.704C3.904,11.234 4.114,11.743 4.489,12.118C4.864,12.493 5.373,12.704 5.904,12.704L9.904,12.704C10.434,12.704 10.943,12.493 11.318,12.118C11.693,11.743 11.904,11.234 11.904,10.704L11.904,4.704ZM5.924,16.704L5.924,36.634L9.904,36.634L9.904,26.704C9.904,25.643 10.325,24.625 11.075,23.875C11.825,23.125 12.843,22.704 13.904,22.704L17.904,22.704C18.964,22.704 19.982,23.125 20.732,23.875C21.482,24.625 21.904,25.643 21.904,26.704L21.904,36.634L33.93,36.634L33.93,16.704L29.904,16.704C28.368,16.704 26.964,16.126 25.904,15.176C24.805,16.161 23.38,16.706 21.904,16.704L17.904,16.704C16.368,16.704 14.964,16.126 13.904,15.176C12.805,16.161 11.38,16.706 9.904,16.704L5.924,16.704ZM1.924,15.196C1.288,14.633 0.778,13.941 0.43,13.167C0.082,12.393 -0.098,11.553 -0.096,10.704L-0.096,6.704C-0.096,5.112 0.536,3.586 1.661,2.461C2.786,1.336 4.312,0.704 5.904,0.704L33.904,0.704C35.495,0.704 37.021,1.336 38.146,2.461C39.271,3.586 39.904,5.112 39.904,6.704L39.904,10.704C39.904,12.468 39.144,14.056 37.93,15.154L37.93,36.634C37.93,37.694 37.508,38.712 36.758,39.462C36.008,40.212 34.99,40.634 33.93,40.634L18.65,40.634C18.404,40.68 18.154,40.704 17.904,40.704L13.904,40.704C13.653,40.704 13.404,40.68 13.158,40.634L5.926,40.634C4.865,40.634 3.847,40.212 3.097,39.462C2.347,38.712 1.926,37.694 1.926,36.634L1.926,15.194L1.924,15.196ZM17.904,36.636L17.904,26.704L13.904,26.704L13.904,36.634L17.904,36.634L17.904,36.636ZM23.904,4.704L15.904,4.704L15.904,10.704C15.904,11.234 16.114,11.743 16.489,12.118C16.864,12.493 17.373,12.704 17.904,12.704L21.904,12.704C22.434,12.704 22.943,12.493 23.318,12.118C23.693,11.743 23.904,11.234 23.904,10.704L23.904,4.704ZM27.904,4.704L27.904,10.704C27.904,11.234 28.114,11.743 28.489,12.118C28.864,12.493 29.373,12.704 29.904,12.704L33.904,12.704C34.434,12.704 34.943,12.493 35.318,12.118C35.693,11.743 35.904,11.234 35.904,10.704L35.904,6.704C35.904,6.173 35.693,5.664 35.318,5.289C34.943,4.914 34.434,4.704 33.904,4.704L27.904,4.704ZM27.904,22.704L29.904,22.704C30.434,22.704 30.943,22.914 31.318,23.289C31.693,23.664 31.904,24.173 31.904,24.704L31.904,30.704C31.904,31.234 31.693,31.743 31.318,32.118C30.943,32.493 30.434,32.704 29.904,32.704L27.904,32.704C27.373,32.704 26.864,32.493 26.489,32.118C26.114,31.743 25.904,31.234 25.904,30.704L25.904,24.704C25.904,24.173 26.114,23.664 26.489,23.289C26.864,22.914 27.373,22.704 27.904,22.704L27.904,22.704Z" fill="#181725" stroke="#FFFFFF" stroke-width="0.1" stroke-miterlimit="3.999327"/>
</svg>
