<svg width="36" height="36" viewBox="0 0 36 36" fill="none" xmlns="http://www.w3.org/2000/svg" xmlns:xlink="http://www.w3.org/1999/xlink">
<path d="M34.002,17.419C34.002,18.171 33.714,18.897 33.175,19.423C32.649,19.962 31.922,20.263 31.17,20.263L19.841,20.263L19.841,31.588C19.841,32.339 19.54,33.066 19.001,33.592C18.475,34.118 17.761,34.419 17.009,34.419C16.257,34.419 15.53,34.118 15.004,33.592C14.465,33.066 14.164,32.339 14.164,31.588L14.164,20.263L2.835,20.263C2.083,20.263 1.356,19.962 0.83,19.423C0.303,18.897 0.002,18.171 0.002,17.419C0.002,16.667 0.303,15.953 0.83,15.415C1.356,14.888 2.083,14.588 2.835,14.588L14.164,14.588L14.164,3.263C14.164,2.511 14.465,1.784 15.004,1.258C15.53,0.72 16.257,0.419 17.009,0.419C17.761,0.419 18.475,0.72 19.001,1.258C19.54,1.784 19.841,2.511 19.841,3.263L19.841,14.588L31.17,14.588C31.922,14.588 32.649,14.888 33.175,15.415C33.714,15.953 34.002,16.667 34.002,17.419Z" fill="#FFFFFF"/>
</svg>
