<svg width="64" height="78" viewBox="0 0 64 78" fill="none" xmlns="http://www.w3.org/2000/svg" xmlns:xlink="http://www.w3.org/1999/xlink">
<path d="M32.73,0.66C21.079,0.66 11.467,5.393 6.552,12.711C5.751,13.949 5.35,15.296 5.35,16.607C5.35,20.248 8.263,23.634 12.377,23.634C14.78,23.634 17.074,22.36 18.203,20.248C20.606,15.733 25.74,12.966 32.33,12.966C42.306,12.966 47.986,17.663 47.986,26.183L47.986,27.093C47.986,29.824 45.874,32.081 43.143,32.227L27.851,33.101C9.428,34.266 -0.657,41.839 -0.657,54.91C-0.657,68.236 9.647,77.01 24.575,77.01C34.733,77.01 44.017,71.95 48.132,63.83L48.459,63.83L48.459,69.146C48.459,71.112 49.26,72.896 50.535,74.207C51.845,75.481 53.629,76.282 55.596,76.282C59.528,76.282 62.695,73.078 62.695,69.146L62.695,25.09C62.695,10.308 50.935,0.66 32.73,0.66ZM47.986,48.247C47.986,58.041 39.612,65.141 28.543,65.141C19.951,65.141 14.38,61.027 14.38,54.619C14.38,48.028 19.696,44.242 29.854,43.623L47.986,42.385L47.986,48.247Z" fill="#FFFFFF"/>
</svg>
