<svg width="36" height="36" viewBox="0 0 36 36" fill="none" xmlns="http://www.w3.org/2000/svg" xmlns:xlink="http://www.w3.org/1999/xlink">
<path d="M34.002,17.225C34.002,17.976 33.714,18.703 33.175,19.229C32.649,19.768 31.922,20.068 31.17,20.068L19.841,20.068L19.841,31.393C19.841,32.145 19.54,32.872 19.001,33.398C18.475,33.924 17.761,34.225 17.009,34.225C16.257,34.225 15.53,33.924 15.004,33.398C14.465,32.872 14.164,32.145 14.164,31.393L14.164,20.068L2.835,20.068C2.083,20.068 1.356,19.768 0.83,19.229C0.303,18.703 0.002,17.976 0.002,17.225C0.002,16.473 0.303,15.759 0.83,15.22C1.356,14.694 2.083,14.393 2.835,14.393L14.164,14.393L14.164,3.068C14.164,2.317 14.465,1.59 15.004,1.064C15.53,0.525 16.257,0.225 17.009,0.225C17.761,0.225 18.475,0.525 19.001,1.064C19.54,1.59 19.841,2.317 19.841,3.068L19.841,14.393L31.17,14.393C31.922,14.393 32.649,14.694 33.175,15.22C33.714,15.759 34.002,16.473 34.002,17.225Z" fill="#FFFFFF"/>
</svg>
