<svg width="34" height="6" viewBox="0 0 34 6" fill="none" xmlns="http://www.w3.org/2000/svg" xmlns:xlink="http://www.w3.org/1999/xlink">
<path d="M33.488,2.239C33.488,2.991 33.2,3.717 32.661,4.243C32.135,4.782 31.408,5.083 30.656,5.083L19.327,5.083L13.65,5.083L2.321,5.083C1.569,5.083 0.842,4.782 0.315,4.243C-0.211,3.717 -0.512,2.991 -0.512,2.239C-0.512,1.487 -0.211,0.773 0.315,0.235C0.842,-0.292 1.569,-0.592 2.321,-0.592L13.65,-0.592L19.327,-0.592L30.656,-0.592C31.408,-0.592 32.135,-0.292 32.661,0.235C33.2,0.773 33.488,1.487 33.488,2.239Z" fill="#B3B3B3"/>
</svg>
