<svg width="34" height="6" viewBox="0 0 34 6" fill="none" xmlns="http://www.w3.org/2000/svg" xmlns:xlink="http://www.w3.org/1999/xlink">
<path d="M33.488,2.285C33.488,3.037 33.2,3.764 32.661,4.29C32.135,4.828 31.408,5.129 30.656,5.129L19.327,5.129L13.65,5.129L2.321,5.129C1.569,5.129 0.842,4.828 0.315,4.29C-0.211,3.764 -0.512,3.037 -0.512,2.285C-0.512,1.534 -0.211,0.82 0.315,0.281C0.842,-0.245 1.569,-0.546 2.321,-0.546L13.65,-0.546L19.327,-0.546L30.656,-0.546C31.408,-0.546 32.135,-0.245 32.661,0.281C33.2,0.82 33.488,1.534 33.488,2.285Z" fill="#B3B3B3"/>
</svg>
