<svg width="66" height="78" viewBox="0 0 66 78" fill="none" xmlns="http://www.w3.org/2000/svg" xmlns:xlink="http://www.w3.org/1999/xlink">
<path d="M38.792,0.805C27.251,0.805 19.75,5.429 15.199,14.204L14.944,14.204L14.944,8.742C14.944,4.81 11.74,1.643 7.808,1.643C3.876,1.643 0.708,4.81 0.708,8.742L0.708,69.146C0.708,73.078 3.876,76.282 7.808,76.282L8.5,76.282C12.432,76.282 15.636,73.078 15.636,69.146L15.636,33.173C15.636,21.413 22.372,13.585 33.622,13.585C44.545,13.585 49.788,19.92 49.788,31.244L49.788,69.146C49.788,73.078 52.956,76.282 56.888,76.282L57.58,76.282C61.512,76.282 64.68,73.078 64.68,69.146L64.68,28.44C64.68,11.255 55.286,0.805 38.792,0.805Z" fill="#FFFFFF"/>
</svg>
