<svg width="46" height="40" viewBox="0 0 46 40" fill="none" xmlns="http://www.w3.org/2000/svg" xmlns:xlink="http://www.w3.org/1999/xlink">
<path d="M17.259,38.703C15.962,38.703 14.718,38.188 13.801,37.271C12.884,36.354 12.369,35.11 12.369,33.813C12.369,32.516 12.884,31.272 13.801,30.354C14.718,29.437 15.962,28.922 17.259,28.922C18.557,28.922 19.8,29.437 20.718,30.354C21.635,31.272 22.15,32.516 22.15,33.813C22.15,35.11 21.635,36.354 20.718,37.271C19.8,38.188 18.557,38.703 17.259,38.703ZM34.377,38.703C33.08,38.703 31.836,38.188 30.919,37.271C30.002,36.354 29.486,35.11 29.486,33.813C29.486,32.516 30.002,31.272 30.919,30.354C31.836,29.437 33.08,28.922 34.377,28.922C35.674,28.922 36.918,29.437 37.835,30.354C38.753,31.272 39.268,32.516 39.268,33.813C39.268,35.11 38.753,36.354 37.835,37.271C36.918,38.188 35.674,38.703 34.377,38.703ZM2.494,4.28C1.884,4.26 1.305,4.004 0.88,3.565C0.455,3.126 0.218,2.54 0.218,1.929C0.218,1.318 0.455,0.731 0.88,0.292C1.305,-0.146 1.884,-0.403 2.494,-0.422L5.309,-0.422C7.515,-0.422 9.422,1.108 9.901,3.26L12.965,17.057C13.445,19.209 15.352,20.74 17.558,20.74L35.927,20.74L39.454,6.63L16.602,6.63C15.997,6.602 15.426,6.343 15.008,5.905C14.59,5.467 14.356,4.885 14.356,4.28C14.356,3.675 14.59,3.093 15.008,2.655C15.426,2.217 15.997,1.958 16.602,1.93L39.454,1.93C40.168,1.93 40.874,2.093 41.517,2.406C42.159,2.719 42.722,3.175 43.162,3.739C43.601,4.302 43.907,4.958 44.055,5.658C44.204,6.357 44.19,7.081 44.017,7.774L40.49,21.879C40.236,22.897 39.649,23.801 38.822,24.446C37.995,25.092 36.976,25.442 35.927,25.442L17.558,25.442C15.418,25.443 13.341,24.713 11.672,23.374C10.002,22.035 8.84,20.166 8.375,18.077L5.309,4.28L2.494,4.28Z" fill="#53B175"/>
</svg>
