<svg width="36" height="36" viewBox="0 0 36 36" fill="none" xmlns="http://www.w3.org/2000/svg" xmlns:xlink="http://www.w3.org/1999/xlink">
<path d="M34.258,17.225C34.258,17.976 33.97,18.703 33.431,19.229C32.905,19.768 32.178,20.068 31.426,20.068L20.097,20.068L20.097,31.393C20.097,32.145 19.796,32.872 19.257,33.398C18.731,33.924 18.017,34.225 17.265,34.225C16.513,34.225 15.786,33.924 15.259,33.398C14.721,32.872 14.42,32.145 14.42,31.393L14.42,20.068L3.091,20.068C2.339,20.068 1.612,19.768 1.085,19.229C0.559,18.703 0.258,17.976 0.258,17.225C0.258,16.473 0.559,15.759 1.085,15.22C1.612,14.694 2.339,14.393 3.091,14.393L14.42,14.393L14.42,3.068C14.42,2.317 14.721,1.59 15.259,1.064C15.786,0.525 16.513,0.225 17.265,0.225C18.017,0.225 18.731,0.525 19.257,1.064C19.796,1.59 20.097,2.317 20.097,3.068L20.097,14.393L31.426,14.393C32.178,14.393 32.905,14.694 33.431,15.22C33.97,15.759 34.258,16.473 34.258,17.225Z" fill="#FFFFFF"/>
</svg>
