<svg width="36" height="36" viewBox="0 0 36 36" fill="none" xmlns="http://www.w3.org/2000/svg" xmlns:xlink="http://www.w3.org/1999/xlink">
<path d="M34.619,17.444C34.619,18.196 34.331,18.922 33.792,19.449C33.266,19.987 32.539,20.288 31.787,20.288L20.458,20.288L20.458,31.613C20.458,32.364 20.157,33.091 19.618,33.617C19.092,34.143 18.377,34.444 17.625,34.444C16.873,34.444 16.147,34.143 15.62,33.617C15.081,33.091 14.781,32.364 14.781,31.613L14.781,20.288L3.451,20.288C2.7,20.288 1.973,19.987 1.446,19.449C0.92,18.922 0.619,18.196 0.619,17.444C0.619,16.692 0.92,15.978 1.446,15.44C1.973,14.914 2.7,14.613 3.451,14.613L14.781,14.613L14.781,3.288C14.781,2.536 15.081,1.81 15.62,1.283C16.147,0.745 16.873,0.444 17.625,0.444C18.377,0.444 19.092,0.745 19.618,1.283C20.157,1.81 20.458,2.536 20.458,3.288L20.458,14.613L31.787,14.613C32.539,14.613 33.266,14.914 33.792,15.44C34.331,15.978 34.619,16.692 34.619,17.444Z" fill="#53B175"/>
</svg>
