<svg width="34" height="6" viewBox="0 0 34 6" fill="none" xmlns="http://www.w3.org/2000/svg" xmlns:xlink="http://www.w3.org/1999/xlink">
<path d="M33.488,2.276C33.488,3.027 33.2,3.754 32.661,4.28C32.135,4.819 31.408,5.119 30.656,5.119L19.327,5.119L13.65,5.119L2.321,5.119C1.569,5.119 0.842,4.819 0.315,4.28C-0.211,3.754 -0.512,3.027 -0.512,2.276C-0.512,1.524 -0.211,0.81 0.315,0.271C0.842,-0.255 1.569,-0.556 2.321,-0.556L13.65,-0.556L19.327,-0.556L30.656,-0.556C31.408,-0.556 32.135,-0.255 32.661,0.271C33.2,0.81 33.488,1.524 33.488,2.276Z" fill="#B3B3B3"/>
</svg>
