<svg width="68" height="78" viewBox="0 0 68 78" fill="none" xmlns="http://www.w3.org/2000/svg" xmlns:xlink="http://www.w3.org/1999/xlink">
<path d="M61.595,51.196L57.626,51.196C55.478,51.196 53.621,52.543 52.82,54.546C50.235,61.136 44.337,64.668 35.962,64.668C23.984,64.668 15.901,55.019 15.901,38.962C15.901,23.27 23.874,13.257 35.89,13.257C44.555,13.257 50.344,17.554 52.711,23.67C53.512,25.709 55.369,27.129 57.59,27.129L61.558,27.129C65.017,27.129 67.602,23.743 66.474,20.466C62.651,9.216 51.728,0.66 35.744,0.66C14.663,0.66 0.754,15.733 0.754,38.962C0.754,62.592 14.699,77.156 35.89,77.156C51.072,77.156 62.359,69.729 66.51,57.968C67.675,54.655 65.127,51.196 61.595,51.196Z" fill="#FFFFFF"/>
</svg>
