<svg width="38" height="38" viewBox="0 0 38 38" fill="none" xmlns="http://www.w3.org/2000/svg" xmlns:xlink="http://www.w3.org/1999/xlink">
<path d="M15.937,28.143C17.513,28.143 19.074,27.832 20.529,27.229C21.985,26.626 23.308,25.742 24.422,24.628C25.537,23.514 26.421,22.191 27.024,20.735C27.627,19.279 27.937,17.718 27.937,16.143C27.937,14.567 27.627,13.006 27.024,11.55C26.421,10.095 25.537,8.772 24.422,7.657C23.308,6.543 21.985,5.659 20.529,5.056C19.074,4.453 17.513,4.143 15.937,4.143C12.755,4.143 9.702,5.407 7.452,7.657C5.202,9.908 3.937,12.96 3.937,16.143C3.937,19.325 5.202,22.377 7.452,24.628C9.702,26.878 12.755,28.143 15.937,28.143ZM28.577,25.955L35.737,33.115C35.928,33.299 36.08,33.52 36.185,33.764C36.29,34.008 36.345,34.271 36.347,34.536C36.349,34.802 36.298,35.065 36.197,35.311C36.097,35.557 35.948,35.78 35.76,35.967C35.572,36.155 35.349,36.303 35.103,36.404C34.857,36.504 34.594,36.555 34.328,36.552C34.062,36.55 33.8,36.494 33.556,36.389C33.312,36.284 33.092,36.132 32.907,35.941L25.747,28.781C22.532,31.276 18.487,32.453 14.435,32.071C10.383,31.689 6.628,29.777 3.936,26.725C1.244,23.672 -0.183,19.709 -0.056,15.64C0.072,11.572 1.745,7.706 4.623,4.828C7.501,1.95 11.367,0.277 15.435,0.149C19.503,0.022 23.467,1.45 26.519,4.142C29.572,6.834 31.484,10.588 31.866,14.64C32.248,18.692 31.071,22.738 28.575,25.953L28.577,25.955Z" fill="#030303"/>
</svg>
