<svg width="36" height="34" viewBox="0 0 36 34" fill="none" xmlns="http://www.w3.org/2000/svg" xmlns:xlink="http://www.w3.org/1999/xlink">
<path d="M34.002,16.322C34.002,17.073 33.714,17.8 33.175,18.326C32.649,18.865 31.922,19.166 31.17,19.166L19.841,19.166L19.841,30.491C19.841,31.242 19.54,31.969 19.001,32.495C18.475,33.021 17.761,33.322 17.009,33.322C16.257,33.322 15.53,33.021 15.004,32.495C14.465,31.969 14.164,31.242 14.164,30.491L14.164,19.166L2.835,19.166C2.083,19.166 1.356,18.865 0.83,18.326C0.303,17.8 0.002,17.073 0.002,16.322C0.002,15.57 0.303,14.856 0.83,14.317C1.356,13.791 2.083,13.491 2.835,13.491L14.164,13.491L14.164,2.166C14.164,1.414 14.465,0.687 15.004,0.161C15.53,-0.378 16.257,-0.678 17.009,-0.678C17.761,-0.678 18.475,-0.378 19.001,0.161C19.54,0.687 19.841,1.414 19.841,2.166L19.841,13.491L31.17,13.491C31.922,13.491 32.649,13.791 33.175,14.317C33.714,14.856 34.002,15.57 34.002,16.322Z" fill="#FFFFFF"/>
</svg>
