<svg width="34" height="24" viewBox="0 0 34 24" fill="none" xmlns="http://www.w3.org/2000/svg" xmlns:xlink="http://www.w3.org/1999/xlink">
<path d="M17.01,4.884C21.903,4.884 26.609,6.587 30.155,9.64C30.422,9.876 30.849,9.873 31.111,9.634L33.664,7.3C33.797,7.179 33.871,7.014 33.87,6.843C33.869,6.672 33.793,6.508 33.658,6.388C24.351,-1.691 9.668,-1.691 0.361,6.388C0.226,6.508 0.15,6.672 0.149,6.843C0.147,7.014 0.222,7.179 0.355,7.3L2.908,9.634C3.171,9.873 3.598,9.876 3.865,9.64C7.411,6.586 12.117,4.883 17.01,4.884ZM17.01,12.475C19.699,12.475 22.291,13.38 24.284,15.014C24.553,15.246 24.978,15.241 25.24,15.003L27.79,12.67C27.924,12.547 27.999,12.381 27.997,12.209C27.995,12.036 27.917,11.871 27.78,11.752C21.712,6.639 12.314,6.639 6.246,11.752C6.109,11.871 6.031,12.036 6.029,12.209C6.027,12.381 6.102,12.547 6.237,12.67L8.786,15.003C9.048,15.241 9.473,15.246 9.742,15.014C11.734,13.381 14.324,12.476 17.01,12.475ZM22.116,17.582C22.12,17.755 22.045,17.922 21.908,18.044L17.499,22.075C17.37,22.193 17.193,22.26 17.01,22.26C16.826,22.26 16.649,22.193 16.52,22.075L12.11,18.044C11.974,17.922 11.899,17.755 11.903,17.582C11.907,17.409 11.99,17.245 12.131,17.13C14.947,14.972 19.072,14.972 21.888,17.13C22.029,17.246 22.112,17.409 22.116,17.582Z" clip-rule="evenodd" fill-rule="evenodd" fill="#000000"/>
</svg>
