<svg width="34" height="24" viewBox="0 0 34 24" fill="none" xmlns="http://www.w3.org/2000/svg" xmlns:xlink="http://www.w3.org/1999/xlink">
<path d="M17.119,4.883C22.011,4.883 26.717,6.586 30.263,9.64C30.53,9.876 30.957,9.873 31.22,9.633L33.772,7.3C33.905,7.178 33.98,7.014 33.978,6.843C33.977,6.672 33.901,6.508 33.766,6.388C24.459,-1.691 9.776,-1.691 0.469,6.388C0.335,6.508 0.258,6.672 0.257,6.843C0.256,7.014 0.33,7.178 0.463,7.3L3.016,9.633C3.279,9.873 3.706,9.876 3.973,9.64C7.519,6.586 12.225,4.883 17.119,4.883ZM17.119,12.475C19.807,12.474 22.399,13.38 24.392,15.014C24.661,15.246 25.086,15.241 25.349,15.003L27.898,12.669C28.032,12.547 28.107,12.381 28.105,12.208C28.103,12.036 28.025,11.871 27.888,11.751C21.82,6.638 12.423,6.638 6.354,11.751C6.217,11.871 6.139,12.036 6.137,12.208C6.136,12.381 6.21,12.547 6.345,12.669L8.894,15.003C9.156,15.241 9.581,15.246 9.851,15.014C11.842,13.381 14.432,12.476 17.119,12.475ZM22.224,17.582C22.228,17.755 22.153,17.922 22.016,18.043L17.607,22.075C17.478,22.193 17.302,22.26 17.118,22.26C16.934,22.26 16.758,22.193 16.628,22.075L12.218,18.043C12.082,17.922 12.007,17.755 12.011,17.582C12.015,17.409 12.098,17.245 12.24,17.129C15.056,14.971 19.18,14.971 21.996,17.129C22.138,17.245 22.22,17.409 22.224,17.582Z" clip-rule="evenodd" fill-rule="evenodd" fill="#000000"/>
</svg>
