<svg width="34" height="24" viewBox="0 0 34 24" fill="none" xmlns="http://www.w3.org/2000/svg" xmlns:xlink="http://www.w3.org/1999/xlink">
<path d="M15.919,5.216C20.812,5.216 25.518,6.919 29.064,9.973C29.331,10.208 29.758,10.205 30.02,9.966L32.573,7.633C32.706,7.511 32.78,7.347 32.779,7.176C32.778,7.004 32.702,6.841 32.567,6.721C23.26,-1.358 8.577,-1.358 -0.73,6.721C-0.865,6.841 -0.941,7.004 -0.942,7.175C-0.944,7.347 -0.87,7.511 -0.736,7.633L1.817,9.966C2.08,10.206 2.507,10.209 2.774,9.973C6.32,6.919 11.026,5.216 15.919,5.216ZM15.919,12.807C18.608,12.807 21.2,13.712 23.193,15.347C23.462,15.579 23.887,15.574 24.149,15.335L26.699,13.002C26.833,12.88 26.908,12.714 26.906,12.541C26.904,12.369 26.826,12.204 26.689,12.084C20.621,6.971 11.223,6.971 5.155,12.084C5.018,12.204 4.94,12.369 4.938,12.541C4.936,12.714 5.011,12.88 5.146,13.002L7.694,15.335C7.957,15.574 8.382,15.579 8.651,15.347C10.643,13.713 13.233,12.808 15.919,12.807ZM21.025,17.915C21.029,18.088 20.954,18.255 20.817,18.376L16.408,22.407C16.279,22.526 16.102,22.593 15.919,22.593C15.735,22.593 15.558,22.526 15.429,22.407L11.019,18.376C10.883,18.255 10.808,18.088 10.812,17.915C10.816,17.742 10.899,17.578 11.04,17.462C13.856,15.304 17.981,15.304 20.797,17.462C20.938,17.578 21.021,17.742 21.025,17.915Z" clip-rule="evenodd" fill-rule="evenodd" fill="#FFFFFF"/>
</svg>
